<svg width="256" height="256" viewBox="0 0 256 256" fill="none" xmlns="http://www.w3.org/2000/svg">
<rect x="1" y="1" width="254" height="254" rx="127" stroke="#0B0356" stroke-width="2"/>
<path d="M59.8 153V150.9L83.67 120.31H60.15V118H87.1V120.03L63.23 150.69H87.45V153H59.8ZM110.523 153.84C100.163 153.84 94.4227 147.33 94.4227 135.5C94.4227 123.6 100.163 117.16 110.523 117.16C120.883 117.16 126.623 123.6 126.623 135.5C126.623 147.33 120.883 153.84 110.523 153.84ZM97.2227 135.5C97.2227 146.35 102.193 151.53 110.523 151.53C118.853 151.53 123.753 146.35 123.753 135.5C123.753 124.58 118.853 119.47 110.523 119.47C102.193 119.47 97.2227 124.58 97.2227 135.5ZM137.478 153V118H139.508L140.138 125.84C141.818 119.89 145.038 117.16 150.918 117.16C152.108 117.16 153.508 117.23 154.838 117.51L154.488 120.03C153.158 119.75 151.828 119.68 150.638 119.68C142.868 119.68 140.138 124.37 140.138 136.2V153H137.478ZM163.386 121.15C167.306 118.56 172.346 117.16 177.946 117.16C188.376 117.16 193.836 123.6 193.836 135.5C193.836 147.33 188.446 153.84 178.296 153.84C174.166 153.84 169.896 152.3 166.046 149.43V167.7H163.386V121.15ZM166.046 147.05C169.546 149.85 173.746 151.53 177.806 151.53C186.766 151.53 191.106 146 191.106 135.5C191.106 125 186.766 119.47 177.806 119.47C173.046 119.47 169.266 120.52 166.046 122.69V147.05Z" fill="#0C3601"/>
</svg>
